<?xml version="1.0" encoding="utf-8"?>
<!-- Generator: Adobe Illustrator 15.1.0, SVG Export Plug-In  -->
<!DOCTYPE svg PUBLIC "-//W3C//DTD SVG 1.1//EN" "http://www.w3.org/Graphics/SVG/1.1/DTD/svg11.dtd" [
	<!ENTITY ns_flows "http://ns.adobe.com/Flows/1.0/">
]>
<svg version="1.1"
	 xmlns="http://www.w3.org/2000/svg" xmlns:xlink="http://www.w3.org/1999/xlink" xmlns:a="http://ns.adobe.com/AdobeSVGViewerExtensions/3.0/"
	 x="0px" y="0px" width="300px" height="150px" viewBox="-13.396 -15.716 300 150"
	 overflow="visible" enable-background="new -13.396 -15.716 300 150" xml:space="preserve">
<defs>
</defs>
<path d="M58.19,61.754c-4.357,0-8.523-0.666-12.498-2.001c-3.976-1.334-7.106-3.063-9.394-5.187l3.022-6.372
	c2.177,1.907,4.955,3.486,8.332,4.738c3.376,1.253,6.889,1.879,10.538,1.879c3.321,0,6.017-0.38,8.087-1.144
	c2.069-0.762,3.594-1.81,4.574-3.145c0.98-1.334,1.47-2.845,1.47-4.534c0-1.96-0.641-3.539-1.919-4.738
	c-1.28-1.197-2.94-2.165-4.983-2.9c-2.042-0.735-4.288-1.375-6.739-1.919c-2.451-0.544-4.915-1.185-7.393-1.919
	c-2.479-0.735-4.738-1.675-6.78-2.818c-2.042-1.144-3.69-2.682-4.942-4.615c-1.253-1.932-1.879-4.424-1.879-7.474
	c0-2.94,0.776-5.649,2.328-8.127C41.567,9,43.963,7.012,47.204,5.514c3.239-1.497,7.365-2.246,12.375-2.246
	c3.321,0,6.617,0.437,9.884,1.307c3.268,0.872,6.099,2.124,8.496,3.758l-2.696,6.535c-2.451-1.634-5.038-2.818-7.76-3.553
	c-2.724-0.735-5.364-1.103-7.923-1.103c-3.214,0-5.854,0.408-7.923,1.225c-2.07,0.817-3.582,1.907-4.534,3.268
	c-0.954,1.362-1.43,2.887-1.43,4.574c0,2.015,0.64,3.622,1.92,4.819c1.279,1.199,2.94,2.152,4.983,2.859
	c2.042,0.708,4.288,1.348,6.739,1.92s4.914,1.212,7.393,1.919c2.478,0.708,4.738,1.634,6.78,2.777s3.688,2.669,4.942,4.574
	c1.252,1.907,1.879,4.357,1.879,7.352c0,2.887-0.79,5.569-2.369,8.046c-1.581,2.479-4.017,4.466-7.311,5.963
	C67.352,61.007,63.2,61.754,58.19,61.754z"/>
<path d="M103.77,61.591c-3.214,0-6.032-0.544-8.455-1.634c-2.424-1.089-4.289-2.6-5.595-4.534c-1.307-1.932-1.96-4.125-1.96-6.576
	c0-2.341,0.558-4.464,1.674-6.371c1.116-1.906,2.941-3.431,5.473-4.575s5.949-1.715,10.251-1.715h13.723v5.636h-13.396
	c-3.921,0-6.563,0.654-7.923,1.96C96.2,45.09,95.52,46.67,95.52,48.521c0,2.124,0.844,3.827,2.532,5.105
	c1.688,1.28,4.029,1.919,7.025,1.919c2.941,0,5.514-0.653,7.719-1.96c2.206-1.307,3.798-3.212,4.779-5.718l1.552,5.391
	c-1.035,2.561-2.859,4.588-5.473,6.085C111.04,60.843,107.744,61.591,103.77,61.591z M117.983,61.101v-9.149l-0.408-1.715V34.635
	c0-3.321-0.967-5.895-2.9-7.719c-1.934-1.824-4.833-2.737-8.699-2.737c-2.561,0-5.065,0.423-7.515,1.266
	c-2.451,0.845-4.521,1.975-6.208,3.39l-3.268-5.881c2.232-1.797,4.914-3.172,8.046-4.125c3.131-0.952,6.412-1.43,9.843-1.43
	c5.935,0,10.509,1.443,13.723,4.33c3.212,2.887,4.819,7.298,4.819,13.233v26.139H117.983z"/>
<path d="M163.072,17.399c3.54,0,6.658,0.682,9.354,2.042c2.695,1.362,4.806,3.431,6.33,6.208c1.524,2.777,2.288,6.29,2.288,10.537
	v24.914h-7.842V37.085c0-4.192-1.021-7.352-3.063-9.475c-2.042-2.124-4.915-3.186-8.618-3.186c-2.777,0-5.201,0.545-7.27,1.634
	c-2.07,1.09-3.663,2.696-4.779,4.819c-1.116,2.124-1.674,4.766-1.674,7.923v22.3h-7.842V17.808h7.515v11.681l-1.226-3.104
	c1.416-2.831,3.595-5.036,6.535-6.616C155.721,18.189,159.151,17.399,163.072,17.399z"/>
<path d="M191.908,22.79l4.085-16.582l1.062,4.738c-1.58,0-2.9-0.49-3.962-1.47c-1.062-0.98-1.593-2.287-1.593-3.921
	c0-1.688,0.531-3.035,1.593-4.043C194.154,0.504,195.447,0,196.973,0c1.579,0,2.859,0.531,3.84,1.593
	c0.979,1.062,1.47,2.383,1.47,3.962c0,0.49-0.028,0.994-0.081,1.511c-0.056,0.518-0.178,1.103-0.368,1.756
	c-0.191,0.653-0.478,1.498-0.857,2.532l-3.921,11.436H191.908z"/>
<path d="M224.582,61.591c-3.595,0-7.013-0.49-10.252-1.47c-3.24-0.98-5.786-2.178-7.638-3.594l3.268-6.208
	c1.851,1.253,4.138,2.315,6.862,3.186c2.722,0.872,5.499,1.307,8.331,1.307c3.648,0,6.276-0.517,7.883-1.552
	c1.605-1.034,2.41-2.478,2.41-4.329c0-1.361-0.49-2.423-1.471-3.186c-0.98-0.762-2.274-1.333-3.88-1.715
	c-1.606-0.38-3.39-0.721-5.351-1.021c-1.96-0.299-3.921-0.68-5.881-1.144c-1.961-0.462-3.758-1.116-5.392-1.96
	c-1.634-0.844-2.94-2.014-3.921-3.513c-0.98-1.497-1.471-3.498-1.471-6.004c0-2.614,0.735-4.901,2.206-6.861
	s3.553-3.472,6.249-4.534c2.695-1.062,5.894-1.593,9.598-1.593c2.831,0,5.704,0.341,8.618,1.021c2.912,0.682,5.295,1.648,7.147,2.9
	l-3.35,6.208c-1.96-1.307-4.002-2.206-6.126-2.695c-2.124-0.49-4.248-0.735-6.371-0.735c-3.432,0-5.991,0.559-7.679,1.674
	c-1.688,1.117-2.532,2.546-2.532,4.289c0,1.471,0.503,2.601,1.511,3.39c1.007,0.79,2.314,1.403,3.921,1.838
	c1.605,0.437,3.391,0.804,5.351,1.103c1.961,0.3,3.921,0.682,5.882,1.144c1.96,0.463,3.743,1.103,5.35,1.92
	c1.605,0.817,2.913,1.96,3.921,3.431c1.007,1.47,1.512,3.431,1.512,5.881c0,2.614-0.764,4.875-2.287,6.78
	c-1.525,1.907-3.676,3.39-6.453,4.452C231.771,61.06,228.448,61.591,224.582,61.591z"/>
<path d="M10.494,116.403c-2.089,0-4.086-0.319-5.991-0.96c-1.906-0.639-3.407-1.468-4.503-2.486l1.449-3.054
	c1.044,0.914,2.375,1.671,3.994,2.271c1.618,0.601,3.302,0.9,5.051,0.9c1.592,0,2.884-0.182,3.877-0.548
	c0.992-0.365,1.723-0.867,2.193-1.508c0.47-0.639,0.705-1.363,0.705-2.173c0-0.939-0.307-1.696-0.92-2.271
	c-0.614-0.573-1.41-1.037-2.389-1.39s-2.056-0.659-3.23-0.921c-1.175-0.26-2.356-0.567-3.544-0.92
	c-1.188-0.353-2.271-0.803-3.25-1.351c-0.979-0.549-1.769-1.285-2.369-2.213c-0.601-0.926-0.901-2.12-0.901-3.583
	c0-1.409,0.372-2.708,1.116-3.896s1.893-2.141,3.446-2.858c1.553-0.718,3.53-1.077,5.933-1.077c1.592,0,3.172,0.209,4.738,0.626
	c1.566,0.418,2.923,1.019,4.073,1.802l-1.292,3.133c-1.175-0.783-2.415-1.352-3.72-1.704c-1.306-0.352-2.572-0.528-3.798-0.528
	c-1.541,0-2.807,0.196-3.798,0.588c-0.993,0.392-1.717,0.914-2.173,1.566c-0.457,0.652-0.686,1.384-0.686,2.192
	c0,0.966,0.307,1.736,0.92,2.311c0.613,0.574,1.41,1.031,2.389,1.37c0.979,0.34,2.056,0.646,3.23,0.92
	c1.175,0.274,2.355,0.582,3.544,0.921c1.188,0.339,2.271,0.783,3.25,1.331s1.768,1.279,2.369,2.193c0.6,0.914,0.9,2.089,0.9,3.523
	c0,1.385-0.378,2.67-1.135,3.857c-0.758,1.188-1.926,2.141-3.505,2.858C14.886,116.045,12.896,116.403,10.494,116.403z"/>
<path d="M37.356,116.09V88.68h3.916v27.41H37.356z M40.802,109.472l-0.196-4.776L56.152,88.68h4.464l-12.021,12.687l-2.193,2.428
	L40.802,109.472z M56.778,116.09L45.54,103.011l2.624-2.897L61.36,116.09H56.778z"/>
<path d="M76.044,116.09V88.68h3.916v27.41H76.044z"/>
<path d="M98.716,116.09V88.68h3.211l18.13,22.516h-1.684V88.68h3.916v27.41h-3.211l-18.13-22.516h1.684v22.516H98.716z"/>
<path d="M153.302,116.403c-2.089,0-4.014-0.346-5.776-1.038c-1.762-0.691-3.289-1.67-4.581-2.937
	c-1.292-1.266-2.305-2.747-3.035-4.444s-1.096-3.563-1.096-5.6s0.365-3.902,1.096-5.6s1.749-3.178,3.055-4.444
	c1.305-1.267,2.839-2.245,4.602-2.938c1.762-0.691,3.687-1.037,5.775-1.037c2.114,0,4.065,0.359,5.854,1.077
	c1.787,0.718,3.309,1.781,4.562,3.19l-2.545,2.468c-1.045-1.097-2.22-1.912-3.524-2.447c-1.306-0.535-2.702-0.803-4.19-0.803
	c-1.54,0-2.97,0.261-4.287,0.782c-1.319,0.523-2.461,1.254-3.427,2.193s-1.717,2.056-2.252,3.348
	c-0.535,1.293-0.803,2.696-0.803,4.21s0.268,2.917,0.803,4.209c0.535,1.293,1.286,2.408,2.252,3.349
	c0.966,0.939,2.107,1.671,3.427,2.192c1.317,0.522,2.747,0.783,4.287,0.783c1.488,0,2.885-0.268,4.19-0.803
	c1.305-0.534,2.479-1.363,3.524-2.486l2.545,2.467c-1.253,1.41-2.774,2.48-4.562,3.211
	C157.406,116.038,155.441,116.403,153.302,116.403z"/>
<path d="M175.739,116.09l12.413-27.41h3.877l12.452,27.41h-4.112l-11.081-25.218h1.566l-11.082,25.218H175.739z M181.025,109.237
	l1.058-3.133h15.428l1.136,3.133H181.025z"/>
<path d="M219.086,116.09V88.68h10.69c2.401,0,4.45,0.378,6.147,1.135c1.697,0.758,3.002,1.854,3.916,3.29
	c0.913,1.436,1.37,3.146,1.37,5.129c0,1.984-0.457,3.688-1.37,5.11c-0.914,1.424-2.219,2.513-3.916,3.27
	c-1.697,0.758-3.746,1.136-6.147,1.136h-8.536l1.762-1.801v10.142H219.086z M223.002,106.34l-1.762-1.919h8.419
	c2.506,0,4.405-0.542,5.697-1.625s1.938-2.604,1.938-4.562c0-1.957-0.646-3.471-1.938-4.542c-1.292-1.07-3.191-1.605-5.697-1.605
	h-8.419l1.762-1.958V106.34z M237.412,116.09l-6.97-9.946h4.189l7.049,9.946H237.412z"/>
<path d="M262.003,112.684h15.977v3.406h-19.893V88.68h19.345v3.406h-15.429V112.684z M261.65,100.505h14.097v3.328H261.65V100.505z"
	/>
</svg>
